<?xml version="1.0" encoding="utf-8"?>
<!-- Generator: Adobe Illustrator 27.9.5, SVG Export Plug-In . SVG Version: 9.03 Build 54986)  -->
<svg version="1.1" id="Layer_1" xmlns="http://www.w3.org/2000/svg" xmlns:xlink="http://www.w3.org/1999/xlink" x="0px" y="0px"
	 viewBox="0 0 2000 2500" enable-background="new 0 0 2000 2500" xml:space="preserve">
<path d="M722.487,1022.628c13.614-6.737,33.101-5.692,42.1,3.206c-2.704,1.66-4.976,3.61-7.608,4.528
	c-3.231,1.127-6.795,2.061-10.158,1.901c-9.221-0.438-15.982,4.346-23.03,9.238c-64.326,44.639-124.5,94.227-179.729,149.783
	c-20.648,20.77-41.507,41.333-62.466,61.79c-7.652,7.469-15.79,14.452-23.884,21.451c-2.587,2.238-5.545,4.297-8.681,5.602
	c-7.979,3.321-14.32-1.728-12.477-10.149c1.059-4.837,3.106-9.611,5.501-13.979c28.111-51.273,62.8-97.247,108.566-134.284
	c29.912-24.207,61.837-45.538,94.057-66.474c19.004-12.348,37.882-24.894,56.704-37.518c10.628-7.129,19.056-15.714,23.437-28.573
	c2.755-8.089,9.027-14.996,13.815-22.373c3.423-5.274,7.431-10.215,10.418-15.717c5.422-9.987,4.202-17.582-3.745-25.75
	c-8.496-8.732-19.08-14.356-30.12-19.09c-19.16-8.217-39.117-13.96-59.561-17.835c-51.453-9.751-102.703-9.688-153.351,4.853
	c-11.124,3.194-21.955,7.71-32.475,12.58c-5.573,2.58-10.745,6.675-15.111,11.066c-7.961,8.007-6.73,14.902,3.352,20.292
	c4.369,2.336,9.282,4.189,14.153,4.95c14.288,2.234,28.661,3.964,43.033,5.613c33.194,3.809,64.01,13.607,89.766,35.829
	c5.188,4.476,9.803,9.778,13.951,15.253c3.895,5.141,5.321,11.332,4.091,17.91c-1.689,9.032-7.965,15.591-17.13,16.243
	c-5.515,0.392-11.448-0.075-16.665-1.777c-6.494-2.119-12.808-5.345-18.567-9.07c-32.608-21.089-68.634-32.673-106.688-38.253
	c-15.515-2.275-31.266-3.614-46.941-3.965c-19.463-0.435-37.396,5.455-52.455,18.117c-35.9,30.185-63.585,66.192-77.073,111.816
	c-5.371,18.167-3.302,36.882-2.597,55.394c0.322,8.452,1.947,16.874,3.289,25.26c0.583,3.642,1.943,7.159,3.239,11.756
	c4.855-1.432,8.993-2.566,13.077-3.87c32.372-10.34,63.893-8.498,94.492,6.556c2.255,1.11,4.532,2.249,6.588,3.677
	c8.205,5.696,8.115,14.057-0.921,18.489c-5.777,2.833-12.485,4.733-18.897,5.14c-24.083,1.529-47.096,8.042-70.193,14.125
	c-19.244,5.068-37.632,12.544-54.747,22.755c-6.16,3.675-12.036,8.089-17.229,13.021c-3.015,2.863-4.913,7.239-6.41,11.27
	c-1.585,4.268-0.222,8.055,4.439,10.011c35.024,14.702,51.669,44.621,63.755,77.93c11.093,30.571,17.945,62.239,22.363,94.444
	c3.129,22.808,5.049,45.678,4.237,68.726c-0.029,0.809,0.377,1.633,0.991,4.099c3.824-4.243,6.931-7.577,9.915-11.018
	c22.436-25.872,48.247-47.931,76.801-66.677c10.203-6.698,21.055-12.82,32.354-17.355c25.359-10.178,49.917-22.68,76.899-28.452
	c11.686-2.5,23.504-4.379,35.194-6.862c13.832-2.938,17.131-6.634,16.709-20.603c-0.852-28.168-6.684-55.54-14.481-82.527
	c-4.189-14.499-8.615-28.932-12.549-43.498c-1.041-3.855-1.293-8.174-0.805-12.145c1.525-12.408,11.883-18.808,23.394-13.875
	c5.604,2.402,11.189,6.257,15.101,10.878c6.458,7.626,12.556,15.902,17.037,24.794c13.798,27.381,24.816,55.886,27.826,86.701
	c1.249,12.789,0.658,25.76,0.836,38.649c0.086,6.218,0.015,12.438,0.015,18.835c7.138,1.137,12.642-1.493,17.512-4.733
	c14.388-9.572,28.924-19.023,42.519-29.65c10.877-8.502,20.351-18.781,30.649-28.047c14.427-12.983,22.872-29.044,25.438-48.207
	c1.21-9.039,2.533-18.087,3.162-27.175c1.75-25.303-5.81-47.827-21.179-67.843c-10.163-13.236-20.484-26.353-30.483-39.711
	c-3.37-4.502-6.576-9.32-8.793-14.453c-4.734-10.961-0.034-19.337,11.56-21.789c14.577-3.083,27.85,2.326,35.943,14.827
	c2.045,3.16,4.031,6.454,5.4,9.939c7.909,20.132,19.973,37.794,32.474,55.202c10.1,14.065,20.246,28.099,30.498,42.054
	c2.412,3.283,5.113,6.424,8.065,9.226c5.699,5.409,8.572,5.347,14.507-0.126c6.859-6.325,11.778-14.124,14.509-22.915
	c10.269-33.055,20.636-66.146,23.87-100.839c1.992-21.37,1.956-42.851-1.357-64.08c-4.373-28.02-19.974-49.18-42.662-65.392
	c-8.674-6.198-18.748-8.834-29.324-9.278c-8.492-0.356-17.001-0.314-25.499-0.547c-2.496-0.068-5.133-0.029-7.447-0.807
	c-6.31-2.123-7.923-8.595-3.464-13.553c1.445-1.606,3.275-3.051,5.21-3.992c3.944-1.916,7.939-4.041,12.159-5.025
	c25.101-5.852,50.044-13.012,75.481-16.627c28.386-4.035,57.352-4.057,85.25,4.291c21.22,6.35,39.207,17.842,51.477,37.366
	c42.2,67.147,71.106,139.452,85.026,217.575c7.199,40.404,19.009,79.529,31.491,118.502c1.58,4.934,3.052,9.902,6.062,14.514
	c0.453-12.131,0.915-24.261,1.358-36.392c1.013-27.688,2.194-55.37,2.976-83.064c0.863-30.59-1.861-60.963-5.069-91.384
	c-3.562-33.787-5.62-67.744-7.81-101.661c-1.845-28.587-1.948-57.316-4.641-85.81c-2.927-30.967,1.031-60.886,8.791-90.628
	c1.101-4.22,1.934-8.51,1.598-13.625c-1.325,1.698-2.717,3.348-3.962,5.102c-3.637,5.124-6.769,10.687-10.929,15.336
	c-5.102,5.703-10.561,4.856-14.744-1.477c-12.307-18.633-24.738-37.187-36.846-55.949c-10.951-16.969-20.983-34.285-23.993-54.903
	c-2.502-17.137,2.115-30.979,15.551-41.989c19.72-16.16,42.384-24.535,67.735-25.072c13.516-0.286,27.06,0.683,40.589,1.123
	c12.716,0.414,23.284-4.135,32.786-14.427c-3.331-1.682-6.107-3.515-9.154-4.541c-9.233-3.109-18.565-5.925-27.872-8.811
	c-3.004-0.932-6.107-1.565-9.065-2.616c-16.016-5.692-19.494-16.834-8.612-29.705c5.439-6.433,11.763-12.389,18.58-17.326
	c11.963-8.664,24.312-16.894,37.046-24.374c21.162-12.432,43.019-23.689,64.097-36.256c21.9-13.056,44.118-12.816,67.082-4.055
	c6.171,2.354,12.28,4.875,18.483,7.142c4.187,1.53,8.422,2.268,12.967-2.186c-3.89-2.754-7.273-5.409-10.906-7.662
	c-6.148-3.812-12.722-6.985-18.634-11.117c-10.641-7.437-10.337-16.497,1.105-22.747c18.041-9.855,37.508-16.203,57.381-21.242
	c55.43-14.055,111.623-17.247,168.659-14.256c47.052,2.467,93.133,10.37,139.292,18.695c22.907,4.131,46.058,6.901,69.022,10.741
	c7.706,1.289,15.408,3.383,22.695,6.189c9.384,3.614,10.908,10.076,4.116,17.603c-36.307,40.229-75.256,76.95-126.695,97.821
	c-17.39,7.056-34.093,9.095-52.314,3.599c-21.365-6.445-43.055-12.243-65.605-12.812c-9.095-0.229-18.228,0.371-27.318,0.978
	c-4.006,0.267-7.949,1.491-11.92,2.28c-0.051,0.653-0.101,1.306-0.151,1.959c2.457,0.426,4.899,1,7.373,1.254
	c25.049,2.563,50.185,4.472,75.125,7.839c13.633,1.841,27.239,5.227,40.278,9.632c8.097,2.735,15.917,7.751,22.424,13.399
	c10.613,9.213,11.83,21.988,4.986,34.317c-4.404,7.933-10.815,14.094-18.62,18.347c-10.751,5.858-21.872,11.06-32.979,16.233
	c-19.38,9.027-39.49,16.696-58.145,27.012c-20.174,11.156-39.036,9.644-58.407-0.398c-5.586-2.896-11.001-6.121-16.511-9.163
	c-25.756-14.22-52.961-21.637-82.559-17.037c-18.643,2.897-37.288,5.859-55.806,9.441c-6.308,1.22-12.232,4.424-18.332,6.722
	c0.092,0.758,0.184,1.515,0.276,2.272c2.166,0.156,4.336,0.495,6.497,0.441c25.476-0.641,50.977-2.332,76.415-1.644
	c14.601,0.395,29.102,4.605,43.638,7.154c1.534,0.269,3.006,0.903,4.496,1.402c35.372,11.862,49.079,39.424,40.71,73.264
	c-5.168,20.898-14.304,40.898-22.615,60.904c-4.571,11.003-14.613,17.023-25.423,21.318c-13.35,5.303-27.438,7.175-41.617,7.449
	c-23.922,0.462-47.862,0.448-71.789,0.167c-22.144-0.26-43.898-3.48-64.978-10.558c-15.672-5.262-31.918-6.944-48.302-7.911
	c-10.682-0.63-21.384-1.202-32.013-2.376c-16.593-1.832-24.156-10.101-23.973-26.885c0.081-7.467,1.454-15.047,3.197-22.347
	c9.669-40.511,27.726-76.826,55.267-108.235c12.247-13.967,24.386-28.048,37.116-41.567c7.312-7.765,15.167-15.233,23.702-21.597
	c63.625-47.443,131.03-88.205,206.224-114.935c8.297-2.95,16.656-5.728,24.973-8.622c0.159-0.055,0.157-0.57,0.372-1.451
	c-9.124-1.285-17.925,0.754-26.627,2.302c-39.476,7.023-76.552,20.282-109.914,43.04c-30.948,21.111-62.163,41.836-92.968,63.154
	c-31.28,21.648-59.14,47.015-81.407,78.105c-4.027,5.622-8.132,11.297-11.279,17.421c-18.716,36.429-36.68,73.177-44.393,113.917
	c-1.404,7.415-3.165,14.768-4.935,22.108c-4.096,16.983-4.994,34.096-3.896,51.554c3.182,50.585,5.554,101.221,8.772,151.803
	c1.238,19.458,3.525,38.873,6.001,58.222c4.049,31.637,5.275,63.379,4.298,95.203c-1.044,33.989-2.894,67.955-3.786,101.947
	c-0.537,20.445-0.16,40.926,0.329,61.379c0.14,5.853,1.335,11.946,3.363,17.443c10.108,27.396,15.978,55.408,16.798,84.768
	c0.957,34.278,3.116,68.545,5.638,102.752c2.777,37.668-0.085,74.831-7.112,111.823c-2.466,12.982-4.437,26.062-6.418,39.13
	c-1.942,12.808-2.692,25.651-0.751,38.578c0.698,4.649,0.997,9.435,0.8,14.13c-1.278,30.506-2.039,61.059-4.365,91.49
	c-1.922,25.144-7.668,49.744-15.566,73.745c-1.363,4.142-3.263,8.22-5.59,11.901c-2.293,3.628-6.025,5.608-10.544,4.864
	c-4.857-0.799-8.044-3.949-9.023-8.563c-0.838-3.947-1.175-8.176-0.766-12.181c2.077-20.346,4.687-40.639,6.7-60.991
	c3.035-30.685,5.479-61.429,8.678-92.096c1.591-15.253-1.636-30.083-2.584-45.099c-2.544-40.29-2.699-80.588-0.134-120.833
	c2.403-37.69,6.526-75.272,8.819-112.968c1.335-21.952,0.69-44.032,0.661-66.054c-0.01-7.543-0.818-15.087-1.328-22.625
	c-0.997-14.751-3.169-29.121-7.526-43.481c-15.34-50.57-30.303-101.278-44.032-152.305c-8.084-30.045-12.709-61.008-20.406-91.171
	c-14.903-58.403-39.665-112.711-72.083-163.424c-9.894-15.478-25.505-24.098-43.231-28.092
	c-30.103-6.781-80.659-6.776-115.306,6.582c1.487,1.008,2.532,1.984,3.768,2.515c37.878,16.283,60.077,45.405,66.113,85.532
	c5.667,37.678,3.294,75.391-7.32,112.279c-5.045,17.534-10.075,35.074-15.366,52.534c-3.13,10.327-7.879,19.973-15.069,28.096
	c-3.503,3.957-7.567,7.634-11.977,10.521c-6.643,4.35-14.012,4.377-20.306-0.596c-5.128-4.052-10.005-8.736-13.932-13.941
	c-15.924-21.112-31.778-42.295-46.948-63.95c-6.638-9.476-11.614-20.121-17.252-30.288c-2.44-4.4-4.432-9.056-7.001-13.374
	c-4.957-8.332-12.435-10.744-23.103-8.625c2.371,4.067,3.996,7.71,6.369,10.775c10.023,12.945,20.254,25.729,30.437,38.55
	c12.725,16.022,22.691,33.51,25.43,54.038c3.637,27.258,1.127,54.131-9.08,79.805c-2.968,7.465-7.312,14.933-12.773,20.763
	c-24.799,26.479-50.826,51.72-83.013,69.33c-7.33,4.01-15.462,7.298-23.621,8.884c-13.763,2.676-19.523-2.31-20.448-16.132
	c-0.44-6.573-0.273-13.235,0.206-19.814c3.302-45.399-10.985-86.258-32.387-125.206c-2.985-5.432-7.384-10.177-11.608-14.802
	c-2.153-2.357-5.371-3.74-10.124-6.906c0.429,5.638,0.191,9.026,1.014,12.133c2.737,10.332,5.518,20.675,8.891,30.811
	c8.885,26.698,14.327,54.13,17.798,81.968c0.89,7.142,0.94,14.48,0.513,21.677c-0.856,14.455-7.941,23.516-21.985,27.158
	c-11.541,2.993-23.554,4.168-35.1,7.148c-14.581,3.763-28.964,8.341-43.304,12.965c-7.169,2.312-13.931,5.883-21.09,8.236
	c-29.511,9.699-54.791,26.466-78.665,45.861c-21.381,17.369-39.995,37.386-57.794,58.264c-2.647,3.105-5.268,6.374-8.463,8.838
	c-5.522,4.258-11.352,1.798-12.556-5.126c-0.477-2.745-0.212-5.65-0.054-8.469c3.295-58.674-6.473-115.485-25.598-170.7
	c-4.891-14.121-12.552-27.423-20.058-40.459c-7.384-12.825-18.743-21.917-32.097-28.383c-0.566-0.274-1.129-0.555-1.692-0.836
	c-17.175-8.564-21.328-22.154-11.657-38.894c5.85-10.127,14.924-16.876,24.797-22.707c26.29-15.528,54.738-25.369,84.434-31.786
	c16.229-3.507,32.564-6.521,49.501-9.886c-1.674-0.934-3.451-2.314-5.465-2.991c-22.133-7.443-44.458-7.922-66.904-1.484
	c-4.533,1.3-8.96,2.976-13.5,4.249c-11.973,3.357-17.951,0.522-21.95-11.117c-2.134-6.211-3.605-12.722-4.671-19.214
	c-3.534-21.539-4.537-43.299-2.093-64.945c3.078-27.253,15.44-51.181,30.619-73.38c10.089-14.755,21.831-28.475,33.679-41.913
	c27.334-31.004,61.841-44.351,103.06-39.991c32.968,3.487,65.366,9.464,96.425,21.557c15.914,6.197,30.724,14.401,45.263,23.282
	c5.818,3.554,12.32,6.257,18.844,8.259c2.691,0.826,7.12-0.264,9.222-2.173c2.884-2.619,1.117-6.683-1.021-9.462
	c-2.861-3.718-6.015-7.308-9.519-10.416c-19.679-17.458-43.18-26.868-68.764-31.072c-15.819-2.599-31.898-3.589-47.78-5.861
	c-7.736-1.107-15.442-3.031-22.866-5.478c-4.67-1.539-9.214-4.206-13.084-7.286c-12.022-9.568-13.752-22.311-5.199-35.1
	c5.947-8.892,14.389-14.907,23.679-19.779c18.287-9.591,37.946-15.303,58.09-19.086c64.583-12.129,127.885-6.875,189.592,15.638
	c10.86,3.962,21.204,9.58,31.306,15.283c5.663,3.197,10.835,7.665,15.364,12.389c11.826,12.333,13.911,26.525,6.134,41.663
	c-3.287,6.397-7.603,12.3-11.776,18.198c-6.187,8.747-11.893,17.587-15.988,27.683
	C732.513,1010.289,726.865,1016.226,722.487,1022.628z M1116.88,850.451c6.179-24.606,18.146-46.17,27.992-68.615
	c11.516-26.254,27.931-49.176,47.231-70.19c14.538-15.83,30.283-30.448,47.903-42.635c38.568-26.676,77.508-52.824,116.609-78.715
	c24.091-15.952,50.779-26.264,78.694-33.481c26.03-6.73,52.347-11.122,79.358-9.524c5.004,0.296,10.021,1.048,14.927,2.086
	c3.848,0.815,7.142,2.935,7.438,7.426c0.298,4.535-2.704,6.81-6.511,8.158c-2.959,1.048-6.018,1.811-9.016,2.753
	c-19.494,6.125-39.212,11.625-58.431,18.517c-59.685,21.404-113.827,53.254-166.081,88.724
	c-25.445,17.272-48.806,36.65-68.561,60.275c-5.049,6.038-10.223,11.974-15.454,17.854c-27.755,31.193-46.5,67.104-56.254,107.669
	c-1.462,6.08-2.678,12.35-2.891,18.57c-0.344,10.086,2.328,13.048,12.353,13.973c10.959,1.011,21.978,1.484,32.982,1.872
	c17.696,0.624,35.104,2.723,52.008,8.326c15.318,5.077,31.114,8.174,47.219,8.617c28.003,0.77,56.031,1.453,84.032,1.037
	c11.495-0.171,23.107-2.614,34.37-5.272c9.384-2.215,18.019-7.381,21.595-16.852c7.318-19.383,15.718-38.698,19.956-58.823
	c5.893-27.981-5.418-45.878-31.45-54.096c-12.497-3.945-25.702-6.163-38.758-7.705c-23.551-2.781-47.161-0.745-70.711,1.144
	c-8.157,0.654-16.302,1.643-24.471,1.902c-5.463,0.173-10.897-1.139-13.744-6.569c-2.99-5.702-1.201-11.076,2.403-15.856
	c1.878-2.491,3.897-5.273,6.516-6.733c7.634-4.255,15.23-9.331,23.517-11.497c16.091-4.206,32.547-7.356,49.034-9.599
	c14.268-1.942,28.863-3.397,43.181-2.622c24.717,1.338,46.855,11.368,67.793,24.162c5.351,3.27,10.944,6.204,16.629,8.856
	c11.261,5.254,22.086,4.596,33.499-0.983c22.591-11.043,45.724-20.969,68.533-31.573c8.257-3.838,16.484-7.875,24.23-12.627
	c4.444-2.727,8.488-6.62,11.663-10.787c5.547-7.279,4.852-13.276-2.183-18.947c-4.336-3.495-9.352-6.63-14.578-8.434
	c-9.181-3.171-18.62-6.276-28.195-7.501c-29.018-3.712-58.163-6.427-87.238-9.712c-9.366-1.058-18.721-2.405-27.978-4.163
	c-4.481-0.851-8.131-3.638-8.8-8.724c-0.65-4.946,1.712-8.697,5.781-11.024c4.345-2.485,8.924-4.68,13.617-6.416
	c21.148-7.822,43.19-9.498,65.161-6.159c20.776,3.158,41.318,8.138,61.747,13.189c11.131,2.752,21.628,3.147,32.312-1.199
	c24.896-10.127,49.021-21.835,69.572-39.341c17.237-14.683,33.387-30.643,49.939-46.124c1.694-1.584,2.838-3.757,4.718-6.308
	c-4.685-1.112-8.286-2.197-11.967-2.804c-25.453-4.201-50.993-7.912-76.37-12.524c-40.263-7.318-80.476-14.438-121.467-16.833
	c-50.144-2.93-100.025-3.177-149.546,6.81c-24.109,4.862-47.925,10.569-70.502,20.586c-2.942,1.305-5.761,2.889-9.981,5.024
	c6.736,3.845,11.977,6.647,17.016,9.772c4.262,2.643,8.712,5.212,12.345,8.601c10.017,9.341,7.58,20.794-5.204,25.882
	c-6.073,2.417-12.274,2.681-18.478,0.595c-8.344-2.806-16.566-5.997-24.982-8.556c-15.768-4.795-31.58-6.41-46.724,2.101
	c-29.344,16.491-58.818,32.774-87.754,49.958c-9.914,5.887-18.548,14.013-27.419,21.526c-3.182,2.696-5.342,6.599-8.722,10.913
	c5.183,1.901,8.904,3.417,12.72,4.636c10.178,3.253,20.571,5.923,30.532,9.73c5.773,2.206,11.276,5.65,16.174,9.468
	c5.032,3.923,5.444,9.616,1.053,14.061c-9.793,9.911-20.172,19.352-35.128,20.276c-9.402,0.581-18.845,0.614-28.27,0.637
	c-7.552,0.018-15.12-0.741-22.656-0.472c-22.065,0.788-41.821,7.896-59.017,22.026c-9.496,7.802-12.684,17.519-10.677,29.403
	c1.796,10.644,4.626,20.917,10.299,30.187c6.237,10.192,12.457,20.406,19.083,30.346c8.871,13.307,18.125,26.359,27.231,39.543
	c0.706-0.538,1.313-0.804,1.622-1.268c2.272-3.401,4.483-6.842,6.715-10.27C1105.607,847.521,1106.588,847.156,1116.88,850.451z
	 M460.087,1252.172c0.461,0.379,0.922,0.759,1.383,1.138c3.644-3.455,7.349-6.846,10.92-10.375
	c12.54-12.393,25.174-24.695,37.519-37.28c57.642-58.76,118.553-113.767,185.379-162.019c1.515-1.094,2.781-2.533,4.164-3.811
	c-7.247,2.972-13.581,6.924-19.806,11.039c-33.074,21.863-66.5,43.219-99.089,65.784c-48.95,33.895-86.908,78.058-117.09,129.119
	C462.241,1247.843,461.209,1250.034,460.087,1252.172z M1135.128,1575.245c-8.62,67.816-13.173,135.829-11.947,204.162
	C1138.584,1712.012,1142.257,1643.93,1135.128,1575.245z"/>
</svg>
