<?xml version="1.0" encoding="utf-8"?>
<!-- Generator: Adobe Illustrator 26.3.1, SVG Export Plug-In . SVG Version: 6.00 Build 0)  -->
<svg version="1.1" xmlns="http://www.w3.org/2000/svg" xmlns:xlink="http://www.w3.org/1999/xlink" x="0px" y="0px"
	 viewBox="0 0 3840 2160" style="enable-background:new 0 0 3840 2160;" xml:space="preserve">
<style type="text/css">
	.st0{fill:none;stroke:#000000;stroke-miterlimit:10;}
	.st1{fill:none;stroke:#000000;stroke-width:7;stroke-miterlimit:10;}
	.st2{fill:none;stroke:#000000;stroke-width:8;stroke-miterlimit:10;}
	.st3{fill:none;stroke:#000000;stroke-width:6;stroke-miterlimit:10;}
	.st4{display:none;fill:none;stroke:#000000;stroke-miterlimit:10;}
	.st5{display:none;opacity:0.94;fill:#FFFFFF;}
	.st6{opacity:0.15;fill:none;stroke:#000000;stroke-miterlimit:10;}
	.st7{opacity:0.23;fill:none;stroke:#000000;stroke-miterlimit:10;}
	.st8{fill:none;stroke:#000000;stroke-width:4;stroke-miterlimit:10;}
	.st9{fill:none;stroke:#000000;stroke-width:2;stroke-miterlimit:10;}
	.st10{fill:none;stroke:#000000;stroke-width:3;stroke-miterlimit:10;}
	.st11{fill:none;stroke:#000000;stroke-width:5;stroke-miterlimit:10;}
	.st12{display:none;fill:none;stroke:#000000;stroke-width:3;stroke-miterlimit:10;}
	.st13{display:none;fill:none;stroke:#000000;stroke-width:2;stroke-miterlimit:10;}
	.st14{opacity:0.59;fill:none;stroke:#000000;stroke-miterlimit:10;}
</style>
<g id="امتداد">
	<path class="st0" d="M1469.58,1447.99c-7.24,12.2-15.32,23.91-24.15,35.02"/>
	<path class="st0" d="M1469.61,1453.16c-8.56,7.35-15.86,16.17-21.49,25.96"/>
	<path class="st0" d="M1468.73,1454.76c-7.09,7.15-13.38,15.1-18.69,23.66"/>
	<path class="st0" d="M1468.18,1450.43c-5.99,6.09-11.49,12.65-16.44,19.61"/>
	<path class="st0" d="M1458.49,1462.53c-5.28,6.8-11.06,13.21-17.3,19.14"/>
	<path class="st0" d="M1458.54,1465.5c-3.77,4.89-7.55,9.77-11.32,14.66"/>
	<path class="st0" d="M1463.58,1462.99c-2.97,4.71-6.69,8.95-10.97,12.51"/>
	<path class="st0" d="M1462.67,1462.53c-3.63,5.96-7.98,11.47-12.93,16.39"/>
	<path class="st0" d="M1462.31,1460.9c-5.61,7.1-11.22,14.21-16.83,21.31"/>
</g>
<g id="ظهر">
	<path class="st0" d="M1583.27,1207.76c-25.88,22.62-90.88,161.73-106.13,225.52"/>
</g>
<g id="النظارة">
	<path class="st1" d="M1901.76,539.57c15.06-1.3,29.23,6.98,41.16,16.26c11.92,9.29,21.64,16.84,34.14,24.06
		c-15.94,5.66-30.77,3.79-46.01-3.56c-10.38-5.01-19.73-11.83-28.64-19.09C1894.73,551,1884.97,541.02,1901.76,539.57z"/>
	<path class="st2" d="M1981.49,584.09c3.02,0.15,11.29,4.92,9.41,7.29c-1.88,2.37-5.19,2.97-8.21,3.13
		c-10.59,0.58-41.89-7.72-54.94-15.48"/>
	<path class="st3" d="M1837.22,537.85c-18-2.49-37.83,1.37-50.54,14.35c-1.53,1.57-3.05,3.58-2.64,5.74c0.4,2.09,2.43,3.4,4.28,4.47
		c37.73,21.66,77.11,43.84,120.49,47.08c4.9,0.37,10.15,0.4,14.33-2.19c6.97-4.32,8.09-14.61,4.47-21.97
		c-3.62-7.36-10.66-12.36-17.63-16.66C1887.77,554.95,1863.66,541.51,1837.22,537.85z"/>
	<path class="st1" d="M1783.29,558.68c-4.21-0.67-8.43-1.34-12.64-2.01c-6.07,10.16-11.53,20.67-16.35,31.48"/>
</g>
<g id="الحنك__x61B__الوجه">
	<path class="st0" d="M2044.89,1001.98c-7.03,8.25-9.78,19.18-12.9,29.56c-5.62,18.71-13.26,37.22-25.92,52.1
		c-5.65,6.64-12.48,12.9-14.64,21.35"/>
	<path class="st0" d="M2044.89,1229.26c11.7-6.08,25.42-46.36,19.56-58.01c-3.63-7.2-2.08-15.22,0.6-22.83
		c3.44-9.77,7.68-16.55,13.75-23.47"/>
	<path class="st0" d="M1763.72,1089.03c1.7,8.71,2.32,19.75,8.17,32.64c27.12,59.8,208.89,137.66,272.99,107.59"/>
</g>
<g id="الشفاه">
	<path class="st0" d="M2088.01,1075.2c-0.62,0.23-1.42,0.77-1.97,1.18c-0.53,0.39-1.16,0.67-1.8,0.87
		c-0.63,0.19-1.34,0.46-2.04,0.47c-0.78,0.02-1.57,0-2.36,0c-1.38,0-2.87-0.15-4.09,0.31c-1.5,0.56-2.82,1.7-4.39,2.21
		c-1.22,0.39-2.2,1.24-3.3,1.89c-1.15,0.68-2.21,1.48-3.31,2.21c-0.75,0.5-1.46,1.03-2.17,1.57c-1.23,0.93-2.59,1.59-3.93,2.34
		c-1.89,1.07-3.86,1.74-5.81,2.68c-2.34,1.13-4.63,2.24-7.06,3.17c-1.64,0.63-3.29,1.26-4.92,1.94c-0.79,0.33-1.59,0.63-2.35,1.02
		c-0.93,0.48-1.88,0.67-2.82,1.08c-1.13,0.5-2.1,1.04-3.29,1.43c-1.45,0.47-2.93,0.9-4.37,1.4c-1.38,0.48-2.64,1.23-4.03,1.73
		c-1.08,0.38-2.16,0.67-3.23,1.06c-2.47,0.9-5.09,1.73-7.64,2.37c-2.08,0.52-4.04,1.11-6.18,1.13"/>
	<path class="st0" d="M2085.5,1079.29c-0.13,1.02-0.5,1.84-0.62,2.84c-0.1,0.84-0.59,1.76-1.03,2.5c-1.01,1.69-2.67,2.79-3.77,4.4
		c-2.31,3.36-5.29,5.97-8.85,7.9c-2.05,1.11-4.34,1.64-6.59,2.33c-3.4,1.04-7.03,1.44-10.42,2.53c-2.58,0.83-5.31,1.45-7.96,2.09
		c-1.45,0.35-3.02,0.54-4.49,0.8c-0.7,0.12-1.32,0.37-2.02,0.38c-0.74,0.02-1.39,0.12-2.1,0.31c-0.61,0.16-1.22,0.16-1.8,0.3
		c-1.77,0.41-3.54,1.13-5.35,1.52c-2.07,0.44-4.17,0.85-6.25,1.25c-1.97,0.38-3.93,0.4-5.85,0.78c-0.88,0.17-1.52,0.22-2.4,0.24
		c-0.75,0.02-1.41,0.28-2.14,0.33c-0.63,0.04-1.26-0.09-1.88,0.06c-0.49,0.12-1.07,0.7-1.57,0.56"/>
	<path class="st0" d="M2075.75,1099.09c1.24,3.66,4.03,6.25,5.04,10.05c0.89,3.37,1.54,7.87,0.31,11.31
		c-4.59,12.85-24.71,8.35-34.52,6.54c-11.92-2.2-23.32-8.05-34.93-11.25"/>
</g>
<g id="الكف_والسيجارة">
	<path class="st0" d="M2104.64,1212.31c0.33-9.08-4.5-38.49-5.46-47.06c-0.96-8.57-0.55-17.54,3.07-25.37
		c3.62-7.83,10.84-15.61,19.46-15.29c9.45,0.35,15.53,4.65,19.39,13.25c1.15,2.55,2,5.14,3.05,7.74c1.04,2.6,2.46,5.22,4.83,3.72
		c1.34-0.85,1.89-2.49,2.48-3.96c2.92-7.27,9.24-13.08,16.72-15.39c2.92-0.9,6.13-1.36,8.45-3.35c1.61-1.39,2.62-3.39,4.3-4.69
		c2.36-1.83,5.94-1.89,8.36-0.13c2.42,1.75,3.48,5.17,2.47,7.99c-0.38,1.06-1.01,2.03-1.25,3.13c-0.52,2.39,0.93,4.72,2.26,6.77
		c6.67,10.25,9.9,20.31,14.65,31.58c5.58,13.23,8.56,26.72,11.41,40.6"/>
	<path class="st0" d="M2181.64,1146c-6.76,8.48-12.52,17.75-17.13,27.57"/>
	<path class="st0" d="M2165.12,1136.6c-3.68,5.96-7.84,11.62-12.45,16.9"/>
	<path class="st0" d="M2183.12,1139.23c-2.48,0.14-4.99-0.22-7.32-1.06c-0.87-0.31-1.74-0.71-2.33-1.42
		c-0.58-0.71-0.79-1.81-0.25-2.55"/>
	<path class="st0" d="M2183.74,1135.77c-2.37-0.59-4.56-1.85-6.27-3.59"/>
	<path class="st0" d="M2186.16,1131.24c-1.57-1.43-3.14-2.87-4.72-4.3"/>
	<path class="st0" d="M2188.76,1127.59c-1.53-0.99-2.72-2.49-3.32-4.21"/>
	<path class="st0" d="M2160.9,1197.96c0.23,1.34,0.5,2.69,0.37,4.04s-0.72,2.73-1.87,3.46c-1.15,0.73-2.89,0.56-3.62-0.58
		c-0.29-0.45-0.41-0.99-0.51-1.51c-0.68-3.29-1.36-6.58-2.04-9.87c-0.62-3.01-1.25-6.08-0.98-9.14c0.12-1.34,0.43-2.71,1.25-3.78
		c3.42-4.48,6.42,1.33,6.58,4.57C2160.3,1189.47,2160.15,1193.64,2160.9,1197.96z"/>
	<path class="st0" d="M2151.48,1395.1c-1.81-0.07-3.37,1.93-2.86,3.67c3.23,0.59,6.75-0.95,8.52-3.72c-2.43-1.5-6.16,0.59-6.15,3.45
		c1.58-0.45,2.89-1.73,3.39-3.29c-1.86-0.16-3.76,0.85-4.67,2.47c1.5-0.21,2.91-1,3.87-2.17"/>
	<path class="st0" d="M2159.4,1205.46c5.51,35.17,9.2,70.63,13.23,106"/>
	<path class="st0" d="M2282.34,1315.5c0.43-7.09-1.34-39.02-12.64-46.34c-6.09-3.95-30.44-6.31-37.66-5.53"/>
	<path class="st0" d="M2303.39,1289.35c-5.27-7.12-13.59-11.9-22.39-12.87"/>
	<path class="st0" d="M2195.14,1114.63c-0.17-2.55,1.63-4.81,3.61-6.43c1.98-1.62,4.28-2.93,5.77-5.01c1.49-2.08,1.84-5.32-0.1-6.98
		"/>
	<path class="st0" d="M2188.91,1107.12c4.26-1.29,5.39-6.85,4.82-11.26c-0.57-4.41-2.03-9.1-0.16-13.14"/>
	<path class="st0" d="M2344.04,1464.88c-11.57,28.64-22.76,69.58-34.33,98.22"/>
	<path class="st0" d="M2303.39,1289.35c17.78,22.15,35.27,83.61,39.96,116.07c2.84,19.65,1.77,39.63,0.7,59.45
		c-0.64-0.64-1.28-1.28-1.93-1.91"/>
	<path class="st0" d="M2283.42,1392.35c-2.22,0.39-3.66,3.15-2.71,5.19c1.35-0.25,2.78-0.54,3.79-1.47
		c1.01-0.93,1.35-2.73,0.32-3.64c-0.88-0.78-2.34-0.52-3.22,0.26c-0.88,0.78-1.32,1.93-1.7,3.05c1.77-0.35,3.33-1.58,4.09-3.21
		c-2.08-1.07-5,0.51-5.25,2.83c0.47-0.18,0.95-0.36,1.42-0.55"/>
	<path class="st0" d="M2214.9,1396.3c-0.95-0.52-2.18,0.6-2.01,1.67c0.17,1.07,1.3,1.78,2.38,1.83c1.08,0.05,2.12-0.4,3.1-0.86
		c0.89-0.43,1.81-0.91,2.39-1.72c0.58-0.81,0.69-2.03,0-2.74c-0.76-0.77-2.11-0.57-2.93,0.13c-0.82,0.7-1.23,1.75-1.61,2.76
		c1.27,0.15,2.37-1.43,1.8-2.57c-2.11-0.64-4.58,0.15-5.94,1.89c1.66,1,3.96,0.79,5.42-0.5c-1.94-0.7-4.31,1.12-4.12,3.18
		c1.58-0.87,3.15-1.74,4.73-2.61"/>
	<path class="st0" d="M2104.64,1305.43c-12.41-52.57-25.58-11.32-29.83,82.12c-0.6,13.22-4.23,37.08-2.15,50.16
		c1.98,12.45,9.6,19.39,17.7,32.35c0.55,0.88,1.78,0.27,2.06-0.72l0.47-1.62"/>
	<path class="st0" d="M2104.05,1314.52c-0.04,32.96-0.08,65.92-0.12,98.88"/>
	<path class="st0" d="M2172.64,1311.46c-0.88,12.15-0.44,24.4,1.31,36.46"/>
	<path class="st0" d="M2231.16,1313.83c0.38,7.47,1.54,14.91,3.46,22.14"/>
	<path class="st0" d="M2282.34,1315.5c2.47,7.23,0.06,9.39,3.11,32.23"/>
	<path class="st0" d="M2327.41,1395c-1.29,0.64-1.06,2.94,0.32,3.31c1.38,0.38,2.74-1.49,1.96-2.69c-1.55-0.22-3.19,0.67-3.85,2.09
		c1.12,0.18,2.38,0.14,3.26-0.58c0.88-0.72,1.08-2.3,0.12-2.93c-0.95-0.63-2.45,0.81-1.66,1.63"/>
	<path class="st0" d="M2104.64,1210.33c-1.47,35.59-1.71,71.23-0.71,106.84"/>
	<path class="st0" d="M2218.83,1211.85c6.17,31.78,8.7,67.75,12.34,101.98"/>
</g>
<g id="الرقبة">
	<path class="st0" d="M1839.41,1347.74c-2.3-20.07,4.31-55.41,9.15-66.61"/>
	<path class="st0" d="M1909.97,1214.04c-32.86-0.89-58.89,55.11-61.4,67.08"/>
</g>
<g id="الصدر__x61B__الأثداء__x61B__الأذرع__x61B__اللباس">
	<path class="st0" d="M1847.29,1371.41c-7.46,8.84,63.59,58.89,70.83,67.91c7.25,9.02,15.25,17.48,21.56,27.18"/>
	<path class="st0" d="M1861.56,1354.01c1.9,23.04,58.38,51.58,78.13,63.61"/>
	<path class="st0" d="M2061.79,1418.95c-15.16-26.98-40.36-47.02-56.86-73.21c-8.34-13.24-19.77-29.74-26.9-43.67
		c-7.13-13.93-51.81-71.71-59.7-83.96"/>
	<path class="st0" d="M1856.81,1256.97c23.99,8.25,120.62,181.95,161.35,209.61"/>
	<path class="st0" d="M1712.82,1487.57c-29.26-23.23-78.03-46.29-115.33-48.46c-34.13-1.99-68.3,5.66-100.19,18.01
		c-17.69,6.85-35.44,15.62-47.26,30.45"/>
	<path class="st0" d="M2061.79,1496.06c8.72,9.55-156.6-235.71-193.9-253.3"/>
	<path class="st0" d="M1712.82,1487.57c60.66,55.64,133.23,75.52,211.53,103.42"/>
	<path class="st0" d="M1983.38,1502.65c8.38,2.25,16.75,4.49,25.13,6.74"/>
	<path class="st0" d="M1967.56,1511.2c7.97,7.35,13.13,17.67,14.22,28.45"/>
	<path class="st0" d="M1458.22,1515.29c51.74-24.4,110.82-32.94,167.35-24.19c51.26,7.93,104.76,40.97,146.32,72"/>
	<path class="st0" d="M2018.15,1466.59c16.75,29.77,22.36,61.57,20.8,95.75c-0.12,2.73-0.34,5.62-1.88,7.88
		c-1.22,1.78-3.13,2.94-5.01,3.99c-33.19,18.54-70.77,25.73-107.72,16.79"/>
</g>
<g id="أنفها">
	<path class="st0" d="M2133.82,1014.27c-4.22,6.12-11.07,9.98-18.17,12.17c-7.1,2.19-14.55,2.9-21.91,3.98
		c-3.01,0.44-6.31,1.12-8.15,3.55c-1.13,1.5-1.5,3.43-1.76,5.29c-1.55,11.14-0.33,22.66,3.52,33.23"/>
	<path class="st0" d="M2111.43,925.89c8.81,13.79,16.39,28.36,22.61,43.49c3.14,7.65,5.98,15.58,6.41,23.83s-1.8,16.97-7.6,22.86
		c0.41-0.05,0.83-0.11,1.24-0.16"/>
	<path class="st0" d="M2111.13,925.68c-4.7-10.4-11.51-19.84-19.89-27.59c-3.58-3.31-7.5-6.37-10.27-10.39
		c-2.77-4.02-4.25-9.34-2.34-13.84"/>
	<path class="st0" d="M2078.58,873.91c0.49-4.44,3.98-17.34,4.64-19.64"/>
	<path class="st0" d="M2083.82,850.43"/>
	<path class="st0" d="M2085.08,850.22"/>
</g>
<g id="صباح_الخير">
	<path class="st0" d="M2086,846.97c-0.32,2.92-0.22,2.77-1.91,5.18c-0.17-2.53-0.15-3.99,1.61-5.81c1.02-0.79-0.22,2-1.03,3.45"/>
	<path class="st0" d="M2064.44,734.55c6.9,13.81,15.72,60.64,16.47,66.64c0.55,4.37,7.24,38.55,1.65,55.38"/>
</g>
<g id="شعر">
	<path class="st0" d="M1601.79,1190.18c-18.16,17.15-44.59,23.23-69.52,21.79c-24.93-1.45-48.92-9.6-72.56-17.68"/>
	<path class="st0" d="M1420.34,1029.45c-6.54,21.55-28.48,34.22-49.28,42.86c-24.91,10.35-50.93,18.04-77.46,22.89"/>
	<path class="st0" d="M1469.55,1050.35c-16.25,32.75-52.6,54.42-89.14,53.13"/>
	<path class="st0" d="M1344.46,988.28c-16.2-1.21-33.09-2.32-48.12,3.86c-10.53,4.33-19.35,11.95-27.32,20.08
		c-12.05,12.3-22.61,26.05-31.38,40.87"/>
	<path class="st0" d="M1312.36,934.71c-26.83,9.66-53.75,26.3-63.54,53.09c-2.44,6.68-3.71,13.99-2.12,20.92
		c4.04,17.57,23.68,25.98,35.6,39.49"/>
	<path class="st0" d="M1431.47,995.54c-42.88,56.51-108.9,94.91-179.22,104.25"/>
	<path class="st0" d="M1794.09,1003.35c-3.38,8.16-6.83,16.45-12.38,23.32c-5.55,6.87-13.6,12.25-22.43,12.5"/>
	<path class="st0" d="M1776.55,1003.67c-5,12.04-15.51,21.66-27.94,25.57"/>
	<path class="st4" d="M1709,1419.15c53.9,17.41,119.23,57.43,162.24,93.63"/>
	<path class="st5" d="M1833.77,1243.34l-19.14,2.72l-88.46-0.99l-13.28-39.92l28.68-37.54c0,0,4.32-16.63,31.76,0
		S1833.77,1243.34,1833.77,1243.34z"/>
	<path class="st6" d="M2053.63,991.26c1.11-1.78,3.35-2.41,5.37-2.98c5.33-1.51,10.51-3.53,15.45-6.03c1.19-0.6,2.37-1.24,3.39-2.1
		c2.44-2.07,3.7-5.45,3.21-8.61"/>
	<path class="st7" d="M2082.71,1027.13c-0.27-0.41,0.29-0.85,0.74-1.01c6.78-2.43,14.12-2.58,21.29-3.29
		c1.09-0.11,2.23-0.24,3.14-0.86c0.91-0.61,1.49-1.86,1-2.84c-0.51-1.01-1.81-1.26-2.93-1.35c-8.28-0.65-16.75,1.5-23.71,6.02"/>
	<path class="st0" d="M1810.42,945.2c-4.74,9.13-16.46,12.3-26.72,11.59c-26.24-1.81-48.47-21.98-74.69-24
		c-15.89-1.22-31.72,4.51-45.01,13.31c-4.85,3.21-9.54,6.89-15.11,8.59"/>
	<path class="st0" d="M1805.62,869.49c-8.84,10.22-23.72,13.2-37.15,11.73c-13.43-1.47-26.13-6.66-39.17-10.22
		c-17.25-4.7-36.01-6.47-52.77-0.23c-13.34,4.97-24.51,14.66-37.84,19.67c-6.86,2.58-14.28,3.91-20.51,7.78"/>
	<path class="st0" d="M1825.9,815.91c1.49,4.7-1.99,9.83-6.49,11.85c-4.49,2.02-9.66,1.7-14.56,1.17
		c-39.7-4.29-77.63-19.38-117.32-23.77c-8.91-0.99-18.14-1.4-26.65,1.43c-13.29,4.41-22.75,15.85-32.64,25.77
		c-9.89,9.92-22.62,19.28-36.52,17.59"/>
	<path class="st0" d="M1747.86,677.21c-7.1,8.24-17.64,12.86-28.29,15.02c-11.32,2.3-23.15,2.1-34.39-0.6
		c-8.47-2.03-16.61-5.44-25.24-6.6c-8.25-1.11-16.66-0.1-24.79,1.7c-38.56,8.53-70.85,34.09-106.97,50.05"/>
	<path class="st0" d="M1867.91,752.16c-11.39,14.82-31.71,18.97-50.3,20.96c-45.56,4.88-93.01,2.84-135.02-15.46
		c-13.66-5.95-26.89-13.65-41.64-15.79c-13.86-2.02-27.93,1.06-41.48,4.62c-26.75,7.02-52.99,16.01-78.43,26.86"/>
	<path class="st0" d="M1620.41,792.91c-21.37,26.29-45.58,50.78-74.6,68.26c-29.02,17.48-63.28,27.6-96.94,23.79
		c-5.55-0.63-11.21-1.63-16.68-0.45c-9.94,2.13-16.93,10.81-22.91,19.03c-10.35,14.23-20.22,28.81-29.6,43.7"/>
	<path class="st0" d="M1581.6,1010.4c3.69,6.09,3.81,14.17,0.3,20.36c-1.29,2.28-3.08,4.34-5.42,5.53c-1.94,0.99-4.14,1.33-6.3,1.51
		c-29.64,2.54-57.09-20.73-86.68-17.65c-24.37,2.54-43.03,22.03-59.37,40.29"/>
	<path class="st0" d="M1644.93,1128.07c-9.58,8.65-20.48,15.73-31.84,21.85c-61.95,33.41-136.93,37.84-205.39,21.43
		c-4.36-1.04-9.82-3.87-8.78-8.23"/>
	<path class="st8" d="M1612.17,915.66c-32.11,9.89-64.64,19.86-98.2,21.37c-33.56,1.5-68.83-6.37-94.14-28.47"/>
	<path class="st9" d="M1619.08,950.73c-29.52,15.89-64.79,16.27-98.23,13.79c-33.44-2.48-67.35-7.4-100.22-0.78"/>
	<path class="st10" d="M1615.59,990.38c9.91,15.38,8.23,36.75-2.41,51.64c-10.64,14.89-29.04,23.3-47.34,23.73
		s-36.3-6.52-51.02-17.4"/>
	<path class="st10" d="M1623.2,980.57c6.93,14.63,11.81,30.52,11.72,46.71c-0.08,16.19-5.5,32.72-16.84,44.27
		c-12.61,12.83-31.23,18.32-49.22,18.6s-35.69-4.08-53.16-8.42"/>
	<path class="st9" d="M1567.8,992.59c-17.5,7.78-37.84,7.05-56.27,1.84c-18.43-5.21-35.37-14.58-52.11-23.87"/>
	<path class="st9" d="M1819.77,945.36c-0.77,14.04-11.76,26.23-25,30.98c-13.23,4.76-28.13,2.97-41.21-2.19
		s-24.65-13.46-35.88-21.92"/>
	<path class="st10" d="M1604.09,554.43c-58.65,22.21-106.77,70.71-128.52,129.53"/>
	<path class="st8" d="M1607.7,626.67c-34.34,45.82-92.87,72.36-149.96,68"/>
	<path class="st11" d="M1525.77,704.33c-22.57,4.46-43.1,18.44-55.5,37.82c-12.4,19.37-16.52,43.87-11.12,66.23"/>
	<path class="st11" d="M1612.68,760.21c-34.31,29.13-76.69,48.65-121.13,55.78"/>
	<path class="st10" d="M2052.87,864.69c-12.67-3.71-25.83-7.46-38.88-5.48c-7.7,1.17-14.95,4.29-22.04,7.5
		c-9.23,4.17-18.36,8.55-27.4,13.13"/>
	<path class="st9" d="M2038.23,732.92c3.48,42.46-62.19,101.71-97.07,99.07c-18.95-1.44-12.95,17.82-36.85,43.99
		c-24.62,26.96-72.77,47.52-84.64,48.05"/>
	<path class="st9" d="M1950.59,811.6"/>
	<path class="st9" d="M1941.16,831.99c-6.61,25.69-25.58,53.27-46.88,69.09c-21.3,15.81-48.11,24.06-74.62,22.95"/>
	<path class="st9" d="M2036.49,645.51c42.08,4.23,68.9,70.84,11.65,76.52c0,0-14.63,3.24-9.92,10.9"/>
	<path class="st12" d="M1901.47,954.41c3.42,4.91,6.58,10.52,6.14,16.49c-0.39,5.36-3.85,10.29-8.54,12.91
		c-4.69,2.62-10.46,3.03-15.64,1.57"/>
	<path class="st9" d="M2055.01,663.41c1.47,10.36-7.04,19.43-15.85,25.07c-15.45,9.89-33.71,14.72-51.97,16.52
		c-18.26,1.81-36.67,0.74-54.99-0.33"/>
	<path class="st10" d="M1931.62,722.03c3.89,21.41-9.54,42.99-27.57,55.18c-18.03,12.19-39.93,16.91-61.26,21.24"/>
	<path class="st9" d="M1875.79,808.7c6.97,12.23,0.9,28.68-10.17,37.36s-25.68,11.26-39.71,12.37c-14.03,1.11-28.39,1.07-41.71,5.61
		"/>
	<path class="st10" d="M1845.03,865.99c-14.07,5.42-25.07,18.2-28.34,32.92c-0.95,4.26-1.51,9.07-4.86,11.87
		c-2.65,2.21-6.34,2.53-9.78,2.75c-13.98,0.9-28.09,1.79-41.93-0.33c-13.84-2.13-27.59-7.55-37.33-17.61"/>
	<path class="st9" d="M1819.66,924.03c-35.57,1.61-70.41-0.4-105.93-2.81c-14.65-1-29.64-1.49-43.75,2.58
		c-32.64,9.42-32.15,35.4-64,47.19"/>
	<path class="st10" d="M2036.49,645.51c0.75,11.51-7.71,22.07-18.06,27.16c-10.35,5.09-22.25,5.78-33.79,5.95
		c-31.37,0.45-62.68-2.31-93.93-5.07"/>
	<path class="st10" d="M2017.78,632.06c-2.96,6.36-9.19,10.73-15.85,12.95s-13.77,2.55-20.79,2.72
		c-41.93,1.03-83.8-2.88-125.56-6.79"/>
	<path class="st10" d="M1893.9,721.59c-6.01-9.57-19.28-12.21-30.26-9.54c-10.98,2.67-20.42,9.45-30.07,15.33
		c-31.33,19.09-67.72,29.78-104.4,30.67"/>
	<path class="st8" d="M1888.51,691.02c-13.89-6.47-29.86-11.81-44.28-6.63c-11.24,4.04-19.32,13.7-28.67,21.12
		c-16.8,13.31-38.31,19.57-59.67,21.34c-21.36,1.77-42.82-0.66-64.11-3.08"/>
	<path class="st13" d="M1765.45,927.95c-21.62,3.27-43.01,8.01-63.99,14.17c-18.33,5.38-37.05,12.3-50.28,26.08"/>
	<path class="st9" d="M1740.57,615.77c-28.77,4.16-57.43,9.1-85.93,14.81c-16.78,3.36-35.53,8.42-43.78,23.41"/>
	<path class="st9" d="M1786.5,532.45c-58.51,10.03-115.41,29.39-167.9,57.12"/>
	<path class="st9" d="M1742.79,549.77c-24.97,18.24-53.81,31.14-84.04,37.61"/>
	<path class="st11" d="M1822.17,519.6c-32.27-7.92-65.61-11.47-98.83-10.53c-8.66,0.24-17.6,0.87-25.3,4.84
		c-8.24,4.25-14.14,11.84-20.23,18.84c-13.39,15.38-28.94,28.86-46.06,39.94"/>
	<path class="st9" d="M1839.5,508.27c-20.03-6.79-40.27-13.64-61.31-15.71c-21.05-2.07-43.28,1.02-60.87,12.76"/>
	<path class="st9" d="M1649.92,540.21c-21.3-2.7-43-2.28-64.18,1.25"/>
	<path class="st13" d="M1696.24,1182.7c-2.09,16.6-14.4,31.49-30.31,36.66"/>
	<path class="st3" d="M1679.72,834.46c-19.83,23.32-47.4,39.05-76.27,49.23s-59.26,15.22-89.47,20.21"/>
	<path class="st9" d="M1648.87,1084.06c-8.12,20.63-28.44,34.48-49.79,40.46c-21.35,5.98-43.92,5.25-66.08,4.49"/>
	<path class="st9" d="M1481.51,818.42c-10.75-1.4-20.71-7.97-26.21-17.31"/>
	<path class="st9" d="M1468.42,839.44c-13.27-9.9-24.68-22.27-33.47-36.3"/>
	<path class="st9" d="M1472.88,882.36c-19.52-13.43-38.44-27.72-56.7-42.82"/>
	<path class="st9" d="M1406.21,814.28c-6.34-4.77-15.09-5.37-22.76-3.33c-7.67,2.05-14.48,6.44-20.96,11.03
		c-14.79,10.46-28.63,22.25-41.31,35.18c-11.35,11.58-22.43,26.01-20.95,42.16"/>
	<path class="st8" d="M1406.81,888.23c-41.66,6.9-78.04,39.25-89.75,79.82"/>
	<path class="st9" d="M1392.62,905.02c-12.17,10.2-20.79,24.55-24.08,40.08c-3.29,15.53-1.22,32.15,5.78,46.4"/>
	<path class="st9" d="M1398.18,989.14c-2.7,15.71-10.76,30.44-22.52,41.19c-11.76,10.76-27.15,17.47-43.03,18.76"/>
	<path class="st9" d="M1431.64,1008.38c-16.89,14.96-33.81,29.94-49.41,46.24c-5.64,5.9-11.49,13.04-10.65,21.16"/>
	<path class="st10" d="M1460.74,1092.05c-14.02,29.12-18.11,62.91-11.44,94.53c1.68,7.95,4.16,16.04,9.51,22.16
		c5.35,6.12,14.19,9.8,21.83,7.04"/>
	<path class="st10" d="M1491.51,1094.1c13.2,28.15,14.43,61.69,3.31,90.73"/>
</g>
<g id="أذن">
	<path class="st0" d="M1714.73,960c-16.91-1.06-34.14,8.66-41.56,23.9c-7.42,15.24-4.26,35.09,7.85,46.94
		c11.26,11.02,27.75,14.31,43.26,17.1c5.74,1.03,12.49,1.78,16.63-2.33c4.7-4.66,3.08-12.47,1.13-18.79
		c-3.94-12.77-7.88-25.54-11.82-38.32"/>
	<path class="st0" d="M1639.43,983.72c7.77,23.14,15.69,46.59,29.28,66.86c13.59,20.27,33.78,37.34,57.79,41.71
		c5.8,1.06,11.89,1.35,17.52-0.41s10.76-5.82,12.7-11.39"/>
	<path class="st0" d="M1675.95,908.6c-8.53-3.48-18.64-0.62-25.88,5.08s-12.13,13.82-16.46,21.95"/>
</g>
<g id="عين">
	<path class="st9" d="M2023.23,921.37c-2.19,12.82-45.93,12.97-59.66,9.29"/>
	<path class="st7" d="M1997.78,912.65c-11.38,5.83-23.72,9.78-36.37,11.64"/>
	<path class="st13" d="M1809.39,897.18c-1.55,0.56-3.1,1.12-4.65,1.68"/>
</g>
<g id="رموش">
	<path class="st14" d="M2013.17,929.88c1.89,1.96,4.78,2.5,7.48,2.94c2.55,0.42,5.1,0.83,7.65,1.25"/>
	<path class="st14" d="M2010.57,930.71c2.13,2.7,5.55,3.95,8.8,5.08"/>
	<path class="st14" d="M2006.62,931.32c0.89,2.48,2.81,4.57,5.21,5.66"/>
	<path class="st14" d="M2002.3,932.76c0.19,2.22,0.69,4.41,1.49,6.49"/>
	<path class="st14" d="M1999.04,933.6c-0.24,1.81-0.47,3.62-0.71,5.44"/>
	<path class="st14" d="M1994.16,932.75c-0.24,1.87-0.72,3.71-1.41,5.47"/>
	<path class="st14" d="M1989.14,933.17c-0.22,1.83-0.92,3.6-2.02,5.08"/>
	<path class="st14" d="M1984.31,932.75c-0.59,2.06-1.96,3.88-3.78,5.01"/>
	<path class="st14" d="M1978.22,933.58c-0.74,1.71-1.96,3.21-3.47,4.3"/>
	<path class="st14" d="M1971.73,933.36c-0.7,0.56-1.39,1.12-2.09,1.68"/>
	<path class="st14" d="M1967.35,933.39c-0.63,0.2-1.26,0.4-1.89,0.6"/>
</g>
</svg>
